HIERARCHY
ROOT hip
{
  OFFSET 0 0 0
  CHANNELS 6 Xposition Yposition Zposition Zrotation Yrotation Xrotation
  JOINT abdomen
  {
    OFFSET 0 20.6881 -0.73152
    CHANNELS 3 Zrotation Xrotation Yrotation
    JOINT chest
    {
      OFFSET 0 11.7043 -0.48768
      CHANNELS 3 Zrotation Xrotation Yrotation
      JOINT neck
      {
        OFFSET 0 22.1894 -2.19456
        CHANNELS 3 Zrotation Xrotation Yrotation
        JOINT head
        {
          OFFSET -0.24384 7.07133 1.2192
          CHANNELS 3 Zrotation Xrotation Yrotation
          JOINT leftEye
          {
            OFFSET 4.14528 8.04674 8.04672
            CHANNELS 3 Zrotation Xrotation Yrotation
            End Site
            {
              OFFSET 1 0 0
            }
          }
          JOINT rightEye
          {
            OFFSET -3.6576 8.04674 8.04672
            CHANNELS 3 Zrotation Xrotation Yrotation
            End Site
            {
              OFFSET 1 0 0
            }
          }
        }
      }
      JOINT rCollar
      {
        OFFSET -2.68224 19.2634 -4.8768
        CHANNELS 3 Zrotation Xrotation Yrotation
        JOINT rShldr
        {
          OFFSET -8.77824 -1.95073 1.46304
          CHANNELS 3 Zrotation Xrotation Yrotation
          JOINT rForeArm
          {
            OFFSET -28.1742 -1.7115 0.48768
            CHANNELS 3 Zrotation Xrotation Yrotation
            JOINT rHand
            {
              OFFSET -22.5879 0.773209 7.07136
              CHANNELS 3 Zrotation Xrotation Yrotation
              JOINT rThumb1
              {
                OFFSET -1.2192 -0.487915 3.41376
                CHANNELS 3 Zrotation Xrotation Yrotation
                JOINT rThumb2
                {
                  OFFSET -3.37035 -0.52449 3.41376
                  CHANNELS 3 Zrotation Xrotation Yrotation
                  End Site
                  {
                    OFFSET -1.78271 -1.18214 1.43049
                  }
                }
              }
              JOINT rIndex1
              {
                OFFSET -7.75947 0.938293 5.60832
                CHANNELS 3 Zrotation Xrotation Yrotation
                JOINT rIndex2
                {
                  OFFSET -2.54057 -0.884171 1.56538
                  CHANNELS 3 Zrotation Xrotation Yrotation
                  End Site
                  {
                    OFFSET -1.62519 -0.234802 1.16502
                  }
                }
              }
              JOINT rMid1
              {
                OFFSET -8.24714 1.18213 3.41376
                CHANNELS 3 Zrotation Xrotation Yrotation
                JOINT rMid2
                {
                  OFFSET -3.10165 -0.590103 1.0647
                  CHANNELS 3 Zrotation Xrotation Yrotation
                  End Site
                  {
                    OFFSET -2.48547 -0.328903 0.83742
                  }
                }
              }
              JOINT rRing1
              {
                OFFSET -8.82822 0.546677 1.51678
                CHANNELS 3 Zrotation Xrotation Yrotation
                JOINT rRing2
                {
                  OFFSET -2.60934 -0.819778 -0.0198488
                  CHANNELS 3 Zrotation Xrotation Yrotation
                  End Site
                  {
                    OFFSET -2.33842 -0.294052 0.168128
                  }
                }
              }
              JOINT rPinky1
              {
                OFFSET -8.27202 -0.0477905 -0.4584
                CHANNELS 3 Zrotation Xrotation Yrotation
                JOINT rPinky2
                {
                  OFFSET -1.82734 -0.647385 -0.700984
                  CHANNELS 3 Zrotation Xrotation Yrotation
                  End Site
                  {
                    OFFSET -1.69225 -0.51767 -0.607171
                  }
                }
              }
            }
          }
        }
      }
      JOINT lCollar
      {
        OFFSET 2.68224 19.2634 -4.8768
        CHANNELS 3 Zrotation Xrotation Yrotation
        JOINT lShldr
        {
          OFFSET 8.77824 -1.95073 1.46304
          CHANNELS 3 Zrotation Xrotation Yrotation
          JOINT lForeArm
          {
            OFFSET 28.1742 -1.7115 0.48768
            CHANNELS 3 Zrotation Xrotation Yrotation
            JOINT lHand
            {
              OFFSET 22.5879 0.773209 7.07136
              CHANNELS 3 Zrotation Xrotation Yrotation
              JOINT lThumb1
              {
                OFFSET 1.2192 -0.487915 3.41376
                CHANNELS 3 Zrotation Xrotation Yrotation
                JOINT lThumb2
                {
                  OFFSET 3.37035 -0.52449 3.41376
                  CHANNELS 3 Zrotation Xrotation Yrotation
                  End Site
                  {
                    OFFSET 1.78271 -1.18214 1.43049
                  }
                }
              }
              JOINT lIndex1
              {
                OFFSET 7.75947 0.938293 5.60832
                CHANNELS 3 Zrotation Xrotation Yrotation
                JOINT lIndex2
                {
                  OFFSET 2.54057 -0.884171 1.56538
                  CHANNELS 3 Zrotation Xrotation Yrotation
                  End Site
                  {
                    OFFSET 1.62519 -0.234802 1.16502
                  }
                }
              }
              JOINT lMid1
              {
                OFFSET 8.24714 1.18213 3.41376
                CHANNELS 3 Zrotation Xrotation Yrotation
                JOINT lMid2
                {
                  OFFSET 3.10165 -0.590103 1.0647
                  CHANNELS 3 Zrotation Xrotation Yrotation
                  End Site
                  {
                    OFFSET 2.48547 -0.328903 0.83742
                  }
                }
              }
              JOINT lRing1
              {
                OFFSET 8.82822 0.546677 1.51678
                CHANNELS 3 Zrotation Xrotation Yrotation
                JOINT lRing2
                {
                  OFFSET 2.60934 -0.819778 -0.0198488
                  CHANNELS 3 Zrotation Xrotation Yrotation
                  End Site
                  {
                    OFFSET 2.33842 -0.294052 0.168128
                  }
                }
              }
              JOINT lPinky1
              {
                OFFSET 8.27202 -0.0477905 -0.4584
                CHANNELS 3 Zrotation Xrotation Yrotation
                JOINT lPinky2
                {
                  OFFSET 1.82734 -0.647385 -0.700984
                  CHANNELS 3 Zrotation Xrotation Yrotation
                  End Site
                  {
                    OFFSET 1.69225 -0.51767 -0.607171
                  }
                }
              }
            }
          }
        }
      }
    }
  }
  JOINT rButtock
  {
    OFFSET -8.77824 4.35084 1.2192
    CHANNELS 3 Zrotation Xrotation Yrotation
    JOINT rThigh
    {
      OFFSET 0 -1.70687 -2.19456
      CHANNELS 3 Zrotation Xrotation Yrotation
      JOINT rShin
      {
        OFFSET 0 -36.8199 0.73152
        CHANNELS 3 Zrotation Xrotation Yrotation
        JOINT rFoot
        {
          OFFSET 0.73152 -45.1104 -5.12064
          CHANNELS 3 Zrotation Xrotation Yrotation
          End Site
          {
            OFFSET -1.1221 -3.69964 12.103
          }
        }
      }
    }
  }
  JOINT lButtock
  {
    OFFSET 8.77824 4.35084 1.2192
    CHANNELS 3 Zrotation Xrotation Yrotation
    JOINT lThigh
    {
      OFFSET 0 -1.70687 -2.19456
      CHANNELS 3 Zrotation Xrotation Yrotation
      JOINT lShin
      {
        OFFSET 0 -36.8199 0.73152
        CHANNELS 3 Zrotation Xrotation Yrotation
        JOINT lFoot
        {
          OFFSET -0.73152 -45.1104 -5.12064
          CHANNELS 3 Zrotation Xrotation Yrotation
          End Site
          {
            OFFSET 1.1221 -3.69964 12.103
          }
        }
      }
    }
  }
}
MOTION
Frames:	4
Frame Time:	0.03333
14.38710032915281 70.9605360043658 76.07259781212932 -12.891196250915527 -25.41509246826172 9.48286247253418 6.378222465515137 10.773762702941895 11.659890174865723 -1.198472499847412 -7.843189716339111 3.1317224502563477 -2.5937252044677734 14.273465156555176 1.248350739479065 8.043840408325195 -26.940475463867188 4.283153057098389 -0.22745171189308167 0.12865309417247772 0.11284821480512619 -0.09911805391311646 0.09301961213350296 0.03361865133047104 0.1272081434726715 0.05741026625037193 -0.05999185889959335 82.659423828125 46.81893539428711 -22.23055648803711 -28.671199798583984 -37.948646545410156 79.0336685180664 -0.13520535826683044 10.54896354675293 1.5143483877182007 -0.18066184222698212 0.030525408685207367 0.10645787417888641 0.19169382750988007 -0.26700395345687866 -0.021839946508407593 -0.0936773419380188 -0.09771963953971863 0.1558685302734375 7.904144763946533 5.652512550354004 0.42211148142814636 -0.2508014142513275 -0.15207111835479736 0.1604120135307312 2.7363803386688232 0.8105279803276062 0.31243452429771423 -0.047199446707963943 0.10826185345649719 -0.04457796365022659 10.269519805908203 0.8306137323379517 -0.38107070326805115 -0.10441704839468002 -0.0948893278837204 0.00034725855221040547 2.3636093139648438 -0.7026494741439819 -0.36190617084503174 -0.12707865238189697 0.04936521500349045 0.19913212954998016 -55.02714157104492 37.39045715332031 -21.49567222595215 28.697467803955078 -33.79523468017578 -71.93531799316406 0.7653495669364929 -25.005077362060547 3.905395746231079 -0.08242574334144592 0.05437471717596054 0.08990279585123062 -0.029781710356473923 0.0358576700091362 -0.1161385253071785 0.16492250561714172 -0.046778615564107895 -0.10116782784461975 -7.781787872314453 5.3816070556640625 -0.6833755970001221 -0.10304665565490723 -0.0050996351055800915 0.2207207977771759 -2.860598564147949 0.897284209728241 -0.18392406404018402 0.10618789494037628 0.35750654339790344 -0.009951749816536903 -10.473579406738281 0.774350643157959 -0.18334710597991943 0.09850049763917923 -0.09077968448400497 -0.2515631914138794 -2.224760055541992 -0.8004350662231445 0.022075865417718887 -0.055382996797561646 -0.04815930500626564 -0.046533744782209396 -4.910671234130859 -8.485572814941406 -8.237565040588379 -0.31624042987823486 51.93513870239258 1.0916553735733032 -15.981229782104492 -18.783933639526367 -28.139747619628906 0.04265211895108223 -0.06141895055770874 0.18089310824871063 52.66792297363281 -58.53987121582031 41.04350280761719 1.3573580980300903 64.43992614746094 -1.3759063482284546 0.5927035808563232 1.2988080978393555 -0.3055548667907715
14.433074332456165 71.09934593886797 76.49199613324298 -13.27226734161377 -25.061477661132812 10.071063995361328 7.083148002624512 10.1746244430542 11.526415824890137 -1.331278920173645 -7.707918643951416 3.063760757446289 -2.5268919467926025 14.25017261505127 1.1392428874969482 8.019407272338867 -26.844688415527344 4.230242729187012 -0.22303864359855652 0.12776018679141998 0.10589171200990677 -0.12968814373016357 0.08631108701229095 0.029522564262151718 0.1573476344347 0.05648938566446304 -0.030800940468907356 82.61479949951172 47.128971099853516 -22.478361129760742 -28.63046646118164 -38.068031311035156 79.29124450683594 -0.0838380753993988 10.462798118591309 1.4779917001724243 -0.20052628219127655 0.03450632467865944 0.11627576500177383 0.17664764821529388 -0.2511587142944336 -0.03783402591943741 -0.08041903376579285 -0.1138228327035904 0.12714122235774994 7.908535480499268 5.682453155517578 0.40306955575942993 -0.2432173192501068 -0.15347249805927277 0.16019277274608612 2.7390925884246826 0.8251338005065918 0.3118131756782532 -0.04918022081255913 0.10348790138959885 -0.07373114675283432 10.282371520996094 0.8072042465209961 -0.3478892147541046 -0.09026697278022766 -0.11171878129243851 -0.00616688746958971 2.3683559894561768 -0.7136256098747253 -0.3556305468082428 -0.11499640345573425 0.05079574137926102 0.2067468762397766 -54.06682586669922 36.33439254760742 -23.03569793701172 28.74831199645996 -34.525299072265625 -73.2104721069336 0.7952542304992676 -25.60190200805664 4.005605220794678 -0.10962727665901184 0.07353075593709946 0.08015426248311996 -0.031383026391267776 0.028695575892925262 -0.11900164932012558 0.12586680054664612 -0.02842094376683235 -0.13496921956539154 -7.7811994552612305 5.362955570220947 -0.6778384447097778 -0.11596264690160751 -0.0017800354398787022 0.2459246963262558 -2.8761355876922607 0.9107851386070251 -0.18403591215610504 0.09825468063354492 0.3302653133869171 -0.019953997805714607 -10.446990013122559 0.804627001285553 -0.17456158995628357 0.10740486532449722 -0.09911247342824936 -0.2496759295463562 -2.214745283126831 -0.8208310008049011 -0.014832528308033943 -0.05104454606771469 -0.029732035472989082 -0.07036717236042023 -4.029399871826172 -7.617440223693848 -8.000577926635742 -0.33513355255126953 49.96974182128906 1.155737280845642 -16.21428871154785 -18.973634719848633 -28.75105857849121 0.058407850563526154 -0.04984152689576149 0.19194693863391876 53.99659729003906 -58.63872146606445 42.5379524230957 1.428433895111084 64.64286041259766 -1.5029804706573486 0.5841818451881409 1.2189717292785645 0.1148018091917038
14.463235914222413 71.09460578758399 76.85552612162775 -13.822308540344238 -25.00232696533203 10.535557746887207 7.917173385620117 9.676528930664062 11.410161972045898 -1.5100873708724976 -7.586832523345947 3.0101139545440674 -2.4119558334350586 14.19426441192627 1.13941490650177 7.9291300773620605 -26.700014114379883 4.36085844039917 -0.2118888944387436 0.1296163648366928 0.08958850800991058 -0.15212473273277283 0.07452049851417542 0.017661046236753464 0.17017781734466553 0.05250062048435211 -0.006287182215601206 82.56859588623047 47.371246337890625 -22.807449340820312 -28.598417282104492 -38.19805145263672 79.54621124267578 -0.04947530850768089 10.316783905029297 1.4409425258636475 -0.22455166280269623 0.037327468395233154 0.1270875483751297 0.15578047931194305 -0.2329876720905304 -0.05450731888413429 -0.06298859417438507 -0.12154341489076614 0.09882596880197525 7.904529571533203 5.707030296325684 0.3854420483112335 -0.2335498332977295 -0.15358753502368927 0.15554869174957275 2.7458655834198 0.835920512676239 0.31001147627830505 -0.05902314931154251 0.1051449179649353 -0.09950145334005356 10.2940092086792 0.7861727476119995 -0.30866241455078125 -0.06492642313241959 -0.13136112689971924 -0.01703488826751709 2.3689470291137695 -0.7223272919654846 -0.342320054769516 -0.08746637403964996 0.04723825678229332 0.20901155471801758 -53.25824737548828 35.24167251586914 -24.50373649597168 28.75702667236328 -35.13486862182617 -74.32809448242188 0.8209995627403259 -26.056373596191406 4.0885910987854 -0.1262190341949463 0.08429224789142609 0.07303294539451599 -0.01726468652486801 0.02859356626868248 -0.12411855161190033 0.08433167636394501 -0.016049494966864586 -0.16741910576820374 -7.7782063484191895 5.356415271759033 -0.6621645092964172 -0.11986439675092697 -0.009103930555284023 0.25260835886001587 -2.89044451713562 0.9359171986579895 -0.18376581370830536 0.08769456297159195 0.2914312183856964 -0.03528086841106415 -10.404952049255371 0.8301234245300293 -0.16088981926441193 0.11921536177396774 -0.09634653478860855 -0.24200434982776642 -2.2086713314056396 -0.8282840251922607 -0.04020616412162781 -0.047602731734514236 -0.015704406425356865 -0.09609108418226242 -3.2514686584472656 -6.6111321449279785 -7.872781276702881 -0.3552717864513397 48.08623504638672 1.2476516962051392 -16.47090721130371 -19.2362003326416 -29.44343376159668 0.07494081556797028 -0.042172789573669434 0.1824885904788971 56.166744232177734 -58.70107650756836 44.80699157714844 1.5818190574645996 65.26494598388672 -1.6868666410446167 0.5158443450927734 1.107103705406189 0.30620136857032776
14.48491781613409 71.00793751720569 77.16537215715752 -14.286844253540039 -25.018850326538086 10.949987411499023 8.646146774291992 9.240757942199707 11.273569107055664 -1.6615575551986694 -7.486433982849121 2.948817729949951 -2.3207216262817383 14.11616325378418 1.1381568908691406 7.815492630004883 -26.5150089263916 4.465952396392822 -0.2036077380180359 0.1296720653772354 0.07010241597890854 -0.16773727536201477 0.05728484317660332 0.006952017080038786 0.17428027093410492 0.04896219074726105 0.006188802886754274 82.306884765625 47.56433868408203 -22.866525650024414 -28.567781448364258 -38.21435546875 79.6548843383789 -0.030960919335484505 10.120526313781738 1.4097084999084473 -0.24819467961788177 0.03976452723145485 0.13536116480827332 0.13027550280094147 -0.2206716686487198 -0.06373286992311478 -0.04950233921408653 -0.11595519632101059 0.07331756502389908 7.895707607269287 5.727523326873779 0.3665556013584137 -0.22105635702610016 -0.1461602747440338 0.1499212086200714 2.7530112266540527 0.8506526350975037 0.29799920320510864 -0.07386317849159241 0.10673918575048447 -0.12280935049057007 10.302281379699707 0.7636807560920715 -0.27324676513671875 -0.039078474044799805 -0.14755025506019592 -0.019234756007790565 2.3696484565734863 -0.7295023798942566 -0.3254810571670532 -0.05395454168319702 0.040770504623651505 0.20910339057445526 -52.60232162475586 34.30928039550781 -25.853017807006836 28.7457218170166 -35.63522720336914 -75.26173400878906 0.8373154401779175 -26.490943908691406 4.167392730712891 -0.13280262053012848 0.08854030817747116 0.06791166961193085 -0.004588079638779163 0.030395638197660446 -0.12105084955692291 0.04766141623258591 -0.01261486578732729 -0.18961012363433838 -7.77360200881958 5.356485366821289 -0.6379222869873047 -0.11485077440738678 -0.014307159930467606 0.2389129102230072 -2.9037296772003174 0.9598661661148071 -0.17942269146442413 0.07522674649953842 0.24878664314746857 -0.05086802318692207 -10.37437629699707 0.8485866785049438 -0.14197707176208496 0.12790392339229584 -0.08764272928237915 -0.23202085494995117 -2.206249475479126 -0.8292652368545532 -0.05874667316675186 -0.042772747576236725 -0.007574461866170168 -0.12274964898824692 -2.626075506210327 -5.76584529876709 -7.714911937713623 -0.3814470171928406 46.46168899536133 1.3496631383895874 -16.64839744567871 -19.453927993774414 -29.934789657592773 0.09092224389314651 -0.03089589811861515 0.16709016263484955 58.193206787109375 -58.65283966064453 46.967288970947266 1.73688805103302 65.98334503173828 -1.874077558517456 0.4841006398200989 0.8541834354400635 0.5360502004623413
